{
	"asset":{
		"generator":"Khronos glTF Blender I/O v3.6.27",
		"version":"2.0"
	},
	"extensionsUsed":[
		"KHR_materials_transmission"
	],
	"scene":0,
	"scenes":[
		{
			"name":"Scene",
			"nodes":[
				0,
				5,
				6
			]
		}
	],
	"nodes":[
		{
			"mesh":0,
			"name":"Box033_Chrome_0.001",
			"rotation":[
				-0.5028315782546997,
				0.4989607036113739,
				0.4983558654785156,
				0.4998400807380676
			],
			"scale":[
				-1.2159109115600586,
				-1.0562454462051392,
				-1.315501093864441
			],
			"translation":[
				5.323496341705322,
				-40.423152923583984,
				-0.35811567306518555
			]
		},
		{
			"mesh":1,
			"name":"pCube211_fridge_0"
		},
		{
			"children":[
				1
			],
			"name":"pCube211",
			"rotation":[
				-0.70710688829422,
				0,
				0,
				0.7071066498756409
			]
		},
		{
			"children":[
				2
			],
			"name":"RootNode"
		},
		{
			"children":[
				3
			],
			"name":"4b23e6554e71469b89371e3a7fd4c048.fbx",
			"rotation":[
				0.70710688829422,
				0,
				0,
				0.7071066498756409
			]
		},
		{
			"children":[
				4
			],
			"name":"Sketchfab_model",
			"rotation":[
				-0.70710688829422,
				0,
				0,
				0.7071066498756409
			]
		},
		{
			"mesh":2,
			"name":"Cube",
			"scale":[
				20,
				6,
				6
			],
			"translation":[
				-6.819177627563477,
				-50.83002853393555,
				-25.031455993652344
			]
		}
	],
	"materials":[
		{
			"doubleSided":true,
			"name":"lattice.001",
			"pbrMetallicRoughness":{
				"baseColorFactor":[
					1,
					1,
					1,
					1
				],
				"metallicFactor":0,
				"roughnessFactor":0.4000000059604645
			}
		},
		{
			"doubleSided":true,
			"name":"fridge.004",
			"normalTexture":{
				"index":0
			},
			"pbrMetallicRoughness":{
				"baseColorTexture":{
					"index":1
				},
				"metallicRoughnessTexture":{
					"index":2
				},
				"roughnessFactor":0.4820437431335449
			}
		},
		{
			"alphaMode":"BLEND",
			"doubleSided":true,
			"extensions":{
				"KHR_materials_transmission":{
					"transmissionFactor":0.7611631751060486
				}
			},
			"name":"glass.001",
			"pbrMetallicRoughness":{
				"baseColorFactor":[
					0.4329376518726349,
					0.9022800922393799,
					0.8574842214584351,
					0.25
				],
				"metallicFactor":0,
				"roughnessFactor":0.6000000238418579
			}
		},
		{
			"doubleSided":true,
			"name":"Material",
			"pbrMetallicRoughness":{
				"baseColorFactor":[
					0.800000011920929,
					0.800000011920929,
					0.800000011920929,
					1
				],
				"metallicFactor":0,
				"roughnessFactor":0.5
			}
		}
	],
	"meshes":[
		{
			"name":"Box033_Chrome_0.005",
			"primitives":[
				{
					"attributes":{
						"POSITION":0,
						"NORMAL":1,
						"TEXCOORD_0":2
					},
					"indices":3,
					"material":0
				}
			]
		},
		{
			"name":"pCube211_fridge_0.004",
			"primitives":[
				{
					"attributes":{
						"POSITION":4,
						"NORMAL":5,
						"TEXCOORD_0":6,
						"TEXCOORD_1":7
					},
					"indices":8,
					"material":1
				}
			]
		},
		{
			"name":"Cube.006",
			"primitives":[
				{
					"attributes":{
						"POSITION":9,
						"NORMAL":10,
						"TEXCOORD_0":11
					},
					"indices":12,
					"material":2
				},
				{
					"attributes":{
						"POSITION":13,
						"NORMAL":14,
						"TEXCOORD_0":15
					},
					"indices":16,
					"material":3
				}
			]
		}
	],
	"textures":[
		{
			"sampler":0,
			"source":0
		},
		{
			"sampler":0,
			"source":1
		},
		{
			"sampler":0,
			"source":2
		}
	],
	"images":[
		{
			"bufferView":9,
			"mimeType":"image/jpeg",
			"name":"fridge_normal"
		},
		{
			"bufferView":10,
			"mimeType":"image/jpeg",
			"name":"fridge_baseColor"
		},
		{
			"bufferView":11,
			"mimeType":"image/jpeg",
			"name":"fridge_metallicRoughness"
		}
	],
	"accessors":[
		{
			"bufferView":0,
			"componentType":5126,
			"count":1179,
			"max":[
				29.342086791992188,
				20.94548797607422,
				0.5450642704963684
			],
			"min":[
				-28.843273162841797,
				-20.93517303466797,
				-0.029093429446220398
			],
			"type":"VEC3"
		},
		{
			"bufferView":1,
			"componentType":5126,
			"count":1179,
			"type":"VEC3"
		},
		{
			"bufferView":2,
			"componentType":5126,
			"count":1179,
			"type":"VEC2"
		},
		{
			"bufferView":3,
			"componentType":5123,
			"count":3192,
			"type":"SCALAR"
		},
		{
			"bufferView":4,
			"componentType":5126,
			"count":252,
			"max":[
				29.07012939453125,
				35.589599609375,
				68.49596405029297
			],
			"min":[
				-25.248870849609375,
				-35.589599609375,
				-68.49596405029297
			],
			"type":"VEC3"
		},
		{
			"bufferView":5,
			"componentType":5126,
			"count":252,
			"type":"VEC3"
		},
		{
			"bufferView":6,
			"componentType":5126,
			"count":252,
			"type":"VEC2"
		},
		{
			"bufferView":7,
			"componentType":5126,
			"count":252,
			"type":"VEC2"
		},
		{
			"bufferView":8,
			"componentType":5123,
			"count":564,
			"type":"SCALAR"
		},
		{
			"bufferView":12,
			"componentType":5126,
			"count":4,
			"max":[
				1.6930166482925415,
				1.382589340209961,
				0.9610901474952698
			],
			"min":[
				-0.30698341131210327,
				1.382589340209961,
				-1.038909912109375
			],
			"type":"VEC3"
		},
		{
			"bufferView":13,
			"componentType":5126,
			"count":4,
			"type":"VEC3"
		},
		{
			"bufferView":14,
			"componentType":5126,
			"count":4,
			"type":"VEC2"
		},
		{
			"bufferView":15,
			"componentType":5123,
			"count":6,
			"type":"SCALAR"
		},
		{
			"bufferView":16,
			"componentType":5126,
			"count":20,
			"max":[
				1.6930166482925415,
				1.382589340209961,
				0.9610901474952698
			],
			"min":[
				-0.30698341131210327,
				-0.6174107193946838,
				-1.038909912109375
			],
			"type":"VEC3"
		},
		{
			"bufferView":17,
			"componentType":5126,
			"count":20,
			"type":"VEC3"
		},
		{
			"bufferView":18,
			"componentType":5126,
			"count":20,
			"type":"VEC2"
		},
		{
			"bufferView":19,
			"componentType":5123,
			"count":30,
			"type":"SCALAR"
		}
	],
	"bufferViews":[
		{
			"buffer":0,
			"byteLength":14148,
			"byteOffset":0,
			"target":34962
		},
		{
			"buffer":0,
			"byteLength":14148,
			"byteOffset":14148,
			"target":34962
		},
		{
			"buffer":0,
			"byteLength":9432,
			"byteOffset":28296,
			"target":34962
		},
		{
			"buffer":0,
			"byteLength":6384,
			"byteOffset":37728,
			"target":34963
		},
		{
			"buffer":0,
			"byteLength":3024,
			"byteOffset":44112,
			"target":34962
		},
		{
			"buffer":0,
			"byteLength":3024,
			"byteOffset":47136,
			"target":34962
		},
		{
			"buffer":0,
			"byteLength":2016,
			"byteOffset":50160,
			"target":34962
		},
		{
			"buffer":0,
			"byteLength":2016,
			"byteOffset":52176,
			"target":34962
		},
		{
			"buffer":0,
			"byteLength":1128,
			"byteOffset":54192,
			"target":34963
		},
		{
			"buffer":0,
			"byteLength":139897,
			"byteOffset":55320
		},
		{
			"buffer":0,
			"byteLength":761395,
			"byteOffset":195220
		},
		{
			"buffer":0,
			"byteLength":238551,
			"byteOffset":956616
		},
		{
			"buffer":0,
			"byteLength":48,
			"byteOffset":1195168,
			"target":34962
		},
		{
			"buffer":0,
			"byteLength":48,
			"byteOffset":1195216,
			"target":34962
		},
		{
			"buffer":0,
			"byteLength":32,
			"byteOffset":1195264,
			"target":34962
		},
		{
			"buffer":0,
			"byteLength":12,
			"byteOffset":1195296,
			"target":34963
		},
		{
			"buffer":0,
			"byteLength":240,
			"byteOffset":1195308,
			"target":34962
		},
		{
			"buffer":0,
			"byteLength":240,
			"byteOffset":1195548,
			"target":34962
		},
		{
			"buffer":0,
			"byteLength":160,
			"byteOffset":1195788,
			"target":34962
		},
		{
			"buffer":0,
			"byteLength":60,
			"byteOffset":1195948,
			"target":34963
		}
	],
	"samplers":[
		{
			"magFilter":9729,
			"minFilter":9987
		}
	],
	"buffers":[
		{
			"byteLength":1196008,
			"uri":"data:application/octet-stream;base64,"
		}
	]
}
